<?xml version="1.0" encoding="us-ascii" standalone="no"?><svg xmlns="http://www.w3.org/2000/svg" xmlns:xlink="http://www.w3.org/1999/xlink" contentStyleType="text/css" height="794px" preserveAspectRatio="none" style="width:1001px;height:794px;background:#FFFFFF;" version="1.1" viewBox="0 0 1001 794" width="1001px" zoomAndPan="magnify"><defs/><g><!--class User--><g id="elem_User"><rect codeLine="2" fill="#F1F1F1" height="161.6563" id="User" rx="2.5" ry="2.5" style="stroke:#181818;stroke-width:0.5;" width="216" x="504" y="7"/><ellipse cx="593.25" cy="23" fill="#ADD1B2" rx="11" ry="11" style="stroke:#181818;stroke-width:1.0;"/><path d="M592.1094,23.7969 L592.1094,26.2969 L596.4375,26.2969 L596.4375,25.375 Q596.4375,24.7656 596.6719,24.5 Q596.9219,24.2344 597.2969,24.2344 Q597.6719,24.2344 597.9063,24.5 Q598.1406,24.7656 598.1406,25.375 L598.1406,28 L590.1406,28 Q589.5156,28 589.25,27.7656 Q589,27.5313 589,27.1406 Q589,26.7656 589.2656,26.5313 Q589.5313,26.2969 590.1406,26.2969 L590.4063,26.2969 L590.4063,19.6406 L590.1406,19.6406 Q589.5156,19.6406 589.25,19.4063 Q589,19.1719 589,18.7813 Q589,18.4063 589.25,18.1719 Q589.5156,17.9375 590.1406,17.9375 L597.7656,17.9375 L597.7656,20.5313 Q597.7656,21.1406 597.5313,21.4063 Q597.3125,21.6563 596.9219,21.6563 Q596.5469,21.6563 596.3125,21.4063 Q596.0781,21.1406 596.0781,20.5313 L596.0781,19.6406 L592.1094,19.6406 L592.1094,22.0938 L593.5938,22.0938 Q593.5938,21.4375 593.7188,21.25 Q593.9844,20.8438 594.4531,20.8438 Q594.8281,20.8438 595.0625,21.1094 Q595.2969,21.3594 595.2969,21.9688 L595.2969,23.9375 Q595.2969,24.4844 595.1719,24.6719 Q594.9063,25.0625 594.4531,25.0625 Q593.9844,25.0625 593.7188,24.6563 Q593.5938,24.4688 593.5938,23.7969 L592.1094,23.7969 Z " fill="#000000"/><text fill="#000000" font-family="sans-serif" font-size="14" lengthAdjust="spacing" textLength="29" x="613.75" y="28.7285">User</text><line style="stroke:#181818;stroke-width:0.5;" x1="505" x2="719" y1="39" y2="39"/><ellipse cx="515" cy="53.3047" fill="#000000" rx="3" ry="3" style="stroke:#000000;stroke-width:1.0;"/><text fill="#000000" font-family="sans-serif" font-size="14" lengthAdjust="spacing" textLength="151" x="524" y="57.5332">user_id : char(21) &#171;PK&#187;</text><line style="stroke:#181818;stroke-width:1.0;" x1="505" x2="719" y1="64.6094" y2="64.6094"/><ellipse cx="515" cy="78.9141" fill="#000000" rx="3" ry="3" style="stroke:#000000;stroke-width:1.0;"/><text fill="#000000" font-family="sans-serif" font-size="14" lengthAdjust="spacing" textLength="190" x="524" y="83.1426">email : varchar(255) &#171;unique&#187;</text><ellipse cx="515" cy="96.5234" fill="#000000" rx="3" ry="3" style="stroke:#000000;stroke-width:1.0;"/><text fill="#000000" font-family="sans-serif" font-size="14" lengthAdjust="spacing" textLength="155" x="524" y="100.752">full_name : varchar(255)</text><ellipse cx="515" cy="114.1328" fill="#000000" rx="3" ry="3" style="stroke:#000000;stroke-width:1.0;"/><text fill="#000000" font-family="sans-serif" font-size="14" lengthAdjust="spacing" textLength="154" x="524" y="118.3613">password : varchar(255)</text><line style="stroke:#181818;stroke-width:1.0;" x1="505" x2="719" y1="125.4375" y2="125.4375"/><ellipse cx="515" cy="139.7422" fill="#000000" rx="3" ry="3" style="stroke:#000000;stroke-width:1.0;"/><text fill="#000000" font-family="sans-serif" font-size="14" lengthAdjust="spacing" textLength="144" x="524" y="143.9707">created_at : timestamp</text><text fill="#000000" font-family="sans-serif" font-size="14" lengthAdjust="spacing" textLength="148" x="524" y="161.5801">updated_at : timestamp</text></g><!--class Session--><g id="elem_Session"><rect codeLine="13" fill="#F1F1F1" height="222.4844" id="Session" rx="2.5" ry="2.5" style="stroke:#181818;stroke-width:0.5;" width="268" x="7" y="246.65"/><ellipse cx="111.75" cy="262.65" fill="#ADD1B2" rx="11" ry="11" style="stroke:#181818;stroke-width:1.0;"/><path d="M110.6094,263.4469 L110.6094,265.9469 L114.9375,265.9469 L114.9375,265.025 Q114.9375,264.4156 115.1719,264.15 Q115.4219,263.8844 115.7969,263.8844 Q116.1719,263.8844 116.4063,264.15 Q116.6406,264.4156 116.6406,265.025 L116.6406,267.65 L108.6406,267.65 Q108.0156,267.65 107.75,267.4156 Q107.5,267.1813 107.5,266.7906 Q107.5,266.4156 107.7656,266.1813 Q108.0313,265.9469 108.6406,265.9469 L108.9063,265.9469 L108.9063,259.2906 L108.6406,259.2906 Q108.0156,259.2906 107.75,259.0563 Q107.5,258.8219 107.5,258.4313 Q107.5,258.0563 107.75,257.8219 Q108.0156,257.5875 108.6406,257.5875 L116.2656,257.5875 L116.2656,260.1813 Q116.2656,260.7906 116.0313,261.0563 Q115.8125,261.3063 115.4219,261.3063 Q115.0469,261.3063 114.8125,261.0563 Q114.5781,260.7906 114.5781,260.1813 L114.5781,259.2906 L110.6094,259.2906 L110.6094,261.7438 L112.0938,261.7438 Q112.0938,261.0875 112.2188,260.9 Q112.4844,260.4938 112.9531,260.4938 Q113.3281,260.4938 113.5625,260.7594 Q113.7969,261.0094 113.7969,261.6188 L113.7969,263.5875 Q113.7969,264.1344 113.6719,264.3219 Q113.4063,264.7125 112.9531,264.7125 Q112.4844,264.7125 112.2188,264.3063 Q112.0938,264.1188 112.0938,263.4469 L110.6094,263.4469 Z " fill="#000000"/><text fill="#000000" font-family="sans-serif" font-size="14" lengthAdjust="spacing" textLength="50" x="132.25" y="268.3785">Session</text><line style="stroke:#181818;stroke-width:0.5;" x1="8" x2="274" y1="278.65" y2="278.65"/><ellipse cx="18" cy="292.9547" fill="#000000" rx="3" ry="3" style="stroke:#000000;stroke-width:1.0;"/><text fill="#000000" font-family="sans-serif" font-size="14" lengthAdjust="spacing" textLength="242" x="27" y="297.1832">session_id : int &#171;PK&#187; &#171;autoincrement&#187;</text><line style="stroke:#181818;stroke-width:1.0;" x1="8" x2="274" y1="304.2594" y2="304.2594"/><ellipse cx="18" cy="318.5641" fill="#000000" rx="3" ry="3" style="stroke:#000000;stroke-width:1.0;"/><text fill="#000000" font-family="sans-serif" font-size="14" lengthAdjust="spacing" textLength="122" x="27" y="322.7926">refresh_token : text</text><ellipse cx="18" cy="336.1734" fill="#000000" rx="3" ry="3" style="stroke:#000000;stroke-width:1.0;"/><text fill="#000000" font-family="sans-serif" font-size="14" lengthAdjust="spacing" textLength="131" x="27" y="340.402">expires_at : datetime</text><text fill="#000000" font-family="sans-serif" font-size="14" lengthAdjust="spacing" textLength="166" x="27" y="358.0113">user_agent : varchar(255)</text><text fill="#000000" font-family="sans-serif" font-size="14" lengthAdjust="spacing" textLength="156" x="27" y="375.6207">ip_address : varchar(25)</text><line style="stroke:#181818;stroke-width:1.0;" x1="8" x2="274" y1="382.6969" y2="382.6969"/><ellipse cx="18" cy="397.0016" fill="#000000" rx="3" ry="3" style="stroke:#000000;stroke-width:1.0;"/><text fill="#000000" font-family="sans-serif" font-size="14" lengthAdjust="spacing" textLength="151" x="27" y="401.2301">user_id : char(21) &#171;FK&#187;</text><line style="stroke:#181818;stroke-width:1.0;" x1="8" x2="274" y1="408.3063" y2="408.3063"/><ellipse cx="18" cy="422.6109" fill="#000000" rx="3" ry="3" style="stroke:#000000;stroke-width:1.0;"/><text fill="#000000" font-family="sans-serif" font-size="14" lengthAdjust="spacing" textLength="144" x="27" y="426.8395">created_at : timestamp</text><text fill="#000000" font-family="sans-serif" font-size="14" lengthAdjust="spacing" textLength="148" x="27" y="444.4488">updated_at : timestamp</text><text fill="#000000" font-family="sans-serif" font-size="14" lengthAdjust="spacing" textLength="147" x="27" y="462.0582">revoked_at : timestamp</text></g><!--class Account--><g id="elem_Account"><rect codeLine="28" fill="#F1F1F1" height="204.875" id="Account" rx="2.5" ry="2.5" style="stroke:#181818;stroke-width:0.5;" width="199" x="688.5" y="255.46"/><ellipse cx="758.25" cy="271.46" fill="#ADD1B2" rx="11" ry="11" style="stroke:#181818;stroke-width:1.0;"/><path d="M757.1094,272.2569 L757.1094,274.7569 L761.4375,274.7569 L761.4375,273.835 Q761.4375,273.2256 761.6719,272.96 Q761.9219,272.6944 762.2969,272.6944 Q762.6719,272.6944 762.9063,272.96 Q763.1406,273.2256 763.1406,273.835 L763.1406,276.46 L755.1406,276.46 Q754.5156,276.46 754.25,276.2256 Q754,275.9913 754,275.6006 Q754,275.2256 754.2656,274.9913 Q754.5313,274.7569 755.1406,274.7569 L755.4063,274.7569 L755.4063,268.1006 L755.1406,268.1006 Q754.5156,268.1006 754.25,267.8663 Q754,267.6319 754,267.2413 Q754,266.8663 754.25,266.6319 Q754.5156,266.3975 755.1406,266.3975 L762.7656,266.3975 L762.7656,268.9913 Q762.7656,269.6006 762.5313,269.8663 Q762.3125,270.1163 761.9219,270.1163 Q761.5469,270.1163 761.3125,269.8663 Q761.0781,269.6006 761.0781,268.9913 L761.0781,268.1006 L757.1094,268.1006 L757.1094,270.5538 L758.5938,270.5538 Q758.5938,269.8975 758.7188,269.71 Q758.9844,269.3038 759.4531,269.3038 Q759.8281,269.3038 760.0625,269.5694 Q760.2969,269.8194 760.2969,270.4288 L760.2969,272.3975 Q760.2969,272.9444 760.1719,273.1319 Q759.9063,273.5225 759.4531,273.5225 Q758.9844,273.5225 758.7188,273.1163 Q758.5938,272.9288 758.5938,272.2569 L757.1094,272.2569 Z " fill="#000000"/><text fill="#000000" font-family="sans-serif" font-size="14" lengthAdjust="spacing" textLength="51" x="778.75" y="277.1885">Account</text><line style="stroke:#181818;stroke-width:0.5;" x1="689.5" x2="886.5" y1="287.46" y2="287.46"/><ellipse cx="699.5" cy="301.7647" fill="#000000" rx="3" ry="3" style="stroke:#000000;stroke-width:1.0;"/><text fill="#000000" font-family="sans-serif" font-size="14" lengthAdjust="spacing" textLength="173" x="708.5" y="305.9932">account_id : char(21) &#171;PK&#187;</text><line style="stroke:#181818;stroke-width:1.0;" x1="689.5" x2="886.5" y1="313.0694" y2="313.0694"/><ellipse cx="699.5" cy="327.3741" fill="#000000" rx="3" ry="3" style="stroke:#000000;stroke-width:1.0;"/><text fill="#000000" font-family="sans-serif" font-size="14" lengthAdjust="spacing" textLength="129" x="708.5" y="331.6026">name : varchar(100)</text><ellipse cx="699.5" cy="344.9834" fill="#000000" rx="3" ry="3" style="stroke:#000000;stroke-width:1.0;"/><text fill="#000000" font-family="sans-serif" font-size="14" lengthAdjust="spacing" textLength="148" x="708.5" y="349.212">balance : decimal(15,2)</text><ellipse cx="699.5" cy="362.5928" fill="#000000" rx="3" ry="3" style="stroke:#000000;stroke-width:1.0;"/><text fill="#000000" font-family="sans-serif" font-size="14" lengthAdjust="spacing" textLength="120" x="708.5" y="366.8213">icon : varchar(100)</text><ellipse cx="699.5" cy="380.2022" fill="#000000" rx="3" ry="3" style="stroke:#000000;stroke-width:1.0;"/><text fill="#000000" font-family="sans-serif" font-size="14" lengthAdjust="spacing" textLength="109" x="708.5" y="384.4307">color : varchar(7)</text><line style="stroke:#181818;stroke-width:1.0;" x1="689.5" x2="886.5" y1="391.5069" y2="391.5069"/><ellipse cx="699.5" cy="405.8116" fill="#000000" rx="3" ry="3" style="stroke:#000000;stroke-width:1.0;"/><text fill="#000000" font-family="sans-serif" font-size="14" lengthAdjust="spacing" textLength="151" x="708.5" y="410.0401">user_id : char(21) &#171;FK&#187;</text><line style="stroke:#181818;stroke-width:1.0;" x1="689.5" x2="886.5" y1="417.1163" y2="417.1163"/><ellipse cx="699.5" cy="431.4209" fill="#000000" rx="3" ry="3" style="stroke:#000000;stroke-width:1.0;"/><text fill="#000000" font-family="sans-serif" font-size="14" lengthAdjust="spacing" textLength="144" x="708.5" y="435.6495">created_at : timestamp</text><text fill="#000000" font-family="sans-serif" font-size="14" lengthAdjust="spacing" textLength="148" x="708.5" y="453.2588">updated_at : timestamp</text></g><!--class Category--><g id="elem_Category"><rect codeLine="42" fill="#F1F1F1" height="204.875" id="Category" rx="2.5" ry="2.5" style="stroke:#181818;stroke-width:0.5;" width="232" x="310" y="255.46"/><ellipse cx="392.75" cy="271.46" fill="#ADD1B2" rx="11" ry="11" style="stroke:#181818;stroke-width:1.0;"/><path d="M391.6094,272.2569 L391.6094,274.7569 L395.9375,274.7569 L395.9375,273.835 Q395.9375,273.2256 396.1719,272.96 Q396.4219,272.6944 396.7969,272.6944 Q397.1719,272.6944 397.4063,272.96 Q397.6406,273.2256 397.6406,273.835 L397.6406,276.46 L389.6406,276.46 Q389.0156,276.46 388.75,276.2256 Q388.5,275.9913 388.5,275.6006 Q388.5,275.2256 388.7656,274.9913 Q389.0313,274.7569 389.6406,274.7569 L389.9063,274.7569 L389.9063,268.1006 L389.6406,268.1006 Q389.0156,268.1006 388.75,267.8663 Q388.5,267.6319 388.5,267.2413 Q388.5,266.8663 388.75,266.6319 Q389.0156,266.3975 389.6406,266.3975 L397.2656,266.3975 L397.2656,268.9913 Q397.2656,269.6006 397.0313,269.8663 Q396.8125,270.1163 396.4219,270.1163 Q396.0469,270.1163 395.8125,269.8663 Q395.5781,269.6006 395.5781,268.9913 L395.5781,268.1006 L391.6094,268.1006 L391.6094,270.5538 L393.0938,270.5538 Q393.0938,269.8975 393.2188,269.71 Q393.4844,269.3038 393.9531,269.3038 Q394.3281,269.3038 394.5625,269.5694 Q394.7969,269.8194 394.7969,270.4288 L394.7969,272.3975 Q394.7969,272.9444 394.6719,273.1319 Q394.4063,273.5225 393.9531,273.5225 Q393.4844,273.5225 393.2188,273.1163 Q393.0938,272.9288 393.0938,272.2569 L391.6094,272.2569 Z " fill="#000000"/><text fill="#000000" font-family="sans-serif" font-size="14" lengthAdjust="spacing" textLength="58" x="413.25" y="277.1885">Category</text><line style="stroke:#181818;stroke-width:0.5;" x1="311" x2="541" y1="287.46" y2="287.46"/><ellipse cx="321" cy="301.7647" fill="#000000" rx="3" ry="3" style="stroke:#000000;stroke-width:1.0;"/><text fill="#000000" font-family="sans-serif" font-size="14" lengthAdjust="spacing" textLength="178" x="330" y="305.9932">category_id : char(21) &#171;PK&#187;</text><line style="stroke:#181818;stroke-width:1.0;" x1="311" x2="541" y1="313.0694" y2="313.0694"/><ellipse cx="321" cy="327.3741" fill="#000000" rx="3" ry="3" style="stroke:#000000;stroke-width:1.0;"/><text fill="#000000" font-family="sans-serif" font-size="14" lengthAdjust="spacing" textLength="129" x="330" y="331.6026">name : varchar(100)</text><ellipse cx="321" cy="344.9834" fill="#000000" rx="3" ry="3" style="stroke:#000000;stroke-width:1.0;"/><text fill="#000000" font-family="sans-serif" font-size="14" lengthAdjust="spacing" textLength="206" x="330" y="349.212">type : enum("income","expense")</text><ellipse cx="321" cy="362.5928" fill="#000000" rx="3" ry="3" style="stroke:#000000;stroke-width:1.0;"/><text fill="#000000" font-family="sans-serif" font-size="14" lengthAdjust="spacing" textLength="120" x="330" y="366.8213">icon : varchar(100)</text><ellipse cx="321" cy="380.2022" fill="#000000" rx="3" ry="3" style="stroke:#000000;stroke-width:1.0;"/><text fill="#000000" font-family="sans-serif" font-size="14" lengthAdjust="spacing" textLength="109" x="330" y="384.4307">color : varchar(7)</text><line style="stroke:#181818;stroke-width:1.0;" x1="311" x2="541" y1="391.5069" y2="391.5069"/><ellipse cx="321" cy="405.8116" fill="#000000" rx="3" ry="3" style="stroke:#000000;stroke-width:1.0;"/><text fill="#000000" font-family="sans-serif" font-size="14" lengthAdjust="spacing" textLength="151" x="330" y="410.0401">user_id : char(21) &#171;FK&#187;</text><line style="stroke:#181818;stroke-width:1.0;" x1="311" x2="541" y1="417.1163" y2="417.1163"/><ellipse cx="321" cy="431.4209" fill="#000000" rx="3" ry="3" style="stroke:#000000;stroke-width:1.0;"/><text fill="#000000" font-family="sans-serif" font-size="14" lengthAdjust="spacing" textLength="144" x="330" y="435.6495">created_at : timestamp</text><text fill="#000000" font-family="sans-serif" font-size="14" lengthAdjust="spacing" textLength="148" x="330" y="453.2588">updated_at : timestamp</text></g><!--class Transaction--><g id="elem_Transaction"><rect codeLine="56" fill="#F1F1F1" height="240.0938" id="Transaction" rx="2.5" ry="2.5" style="stroke:#181818;stroke-width:0.5;" width="232" x="493" y="547.14"/><ellipse cx="567.25" cy="563.14" fill="#ADD1B2" rx="11" ry="11" style="stroke:#181818;stroke-width:1.0;"/><path d="M566.1094,563.9369 L566.1094,566.4369 L570.4375,566.4369 L570.4375,565.515 Q570.4375,564.9056 570.6719,564.64 Q570.9219,564.3744 571.2969,564.3744 Q571.6719,564.3744 571.9063,564.64 Q572.1406,564.9056 572.1406,565.515 L572.1406,568.14 L564.1406,568.14 Q563.5156,568.14 563.25,567.9056 Q563,567.6713 563,567.2806 Q563,566.9056 563.2656,566.6713 Q563.5313,566.4369 564.1406,566.4369 L564.4063,566.4369 L564.4063,559.7806 L564.1406,559.7806 Q563.5156,559.7806 563.25,559.5463 Q563,559.3119 563,558.9213 Q563,558.5463 563.25,558.3119 Q563.5156,558.0775 564.1406,558.0775 L571.7656,558.0775 L571.7656,560.6713 Q571.7656,561.2806 571.5313,561.5463 Q571.3125,561.7963 570.9219,561.7963 Q570.5469,561.7963 570.3125,561.5463 Q570.0781,561.2806 570.0781,560.6713 L570.0781,559.7806 L566.1094,559.7806 L566.1094,562.2338 L567.5938,562.2338 Q567.5938,561.5775 567.7188,561.39 Q567.9844,560.9838 568.4531,560.9838 Q568.8281,560.9838 569.0625,561.2494 Q569.2969,561.4994 569.2969,562.1088 L569.2969,564.0775 Q569.2969,564.6244 569.1719,564.8119 Q568.9063,565.2025 568.4531,565.2025 Q567.9844,565.2025 567.7188,564.7963 Q567.5938,564.6088 567.5938,563.9369 L566.1094,563.9369 Z " fill="#000000"/><text fill="#000000" font-family="sans-serif" font-size="14" lengthAdjust="spacing" textLength="75" x="587.75" y="568.8685">Transaction</text><line style="stroke:#181818;stroke-width:0.5;" x1="494" x2="724" y1="579.14" y2="579.14"/><ellipse cx="504" cy="593.4447" fill="#000000" rx="3" ry="3" style="stroke:#000000;stroke-width:1.0;"/><text fill="#000000" font-family="sans-serif" font-size="14" lengthAdjust="spacing" textLength="193" x="513" y="597.6732">transaction_id : char(21) &#171;PK&#187;</text><line style="stroke:#181818;stroke-width:1.0;" x1="494" x2="724" y1="604.7494" y2="604.7494"/><ellipse cx="504" cy="619.0541" fill="#000000" rx="3" ry="3" style="stroke:#000000;stroke-width:1.0;"/><text fill="#000000" font-family="sans-serif" font-size="14" lengthAdjust="spacing" textLength="206" x="513" y="623.2826">type : enum("income","expense")</text><ellipse cx="504" cy="636.6634" fill="#000000" rx="3" ry="3" style="stroke:#000000;stroke-width:1.0;"/><text fill="#000000" font-family="sans-serif" font-size="14" lengthAdjust="spacing" textLength="145" x="513" y="640.892">amount : decimal(15,2)</text><ellipse cx="504" cy="654.2728" fill="#000000" rx="3" ry="3" style="stroke:#000000;stroke-width:1.0;"/><text fill="#000000" font-family="sans-serif" font-size="14" lengthAdjust="spacing" textLength="103" x="513" y="658.5013">description : text</text><ellipse cx="504" cy="671.8822" fill="#000000" rx="3" ry="3" style="stroke:#000000;stroke-width:1.0;"/><text fill="#000000" font-family="sans-serif" font-size="14" lengthAdjust="spacing" textLength="146" x="513" y="676.1107">transaction_date : date</text><line style="stroke:#181818;stroke-width:1.0;" x1="494" x2="724" y1="683.1869" y2="683.1869"/><ellipse cx="504" cy="697.4916" fill="#000000" rx="3" ry="3" style="stroke:#000000;stroke-width:1.0;"/><text fill="#000000" font-family="sans-serif" font-size="14" lengthAdjust="spacing" textLength="151" x="513" y="701.7201">user_id : char(21) &#171;FK&#187;</text><ellipse cx="504" cy="715.1009" fill="#000000" rx="3" ry="3" style="stroke:#000000;stroke-width:1.0;"/><text fill="#000000" font-family="sans-serif" font-size="14" lengthAdjust="spacing" textLength="178" x="513" y="719.3295">category_id : char(21) &#171;FK&#187;</text><ellipse cx="504" cy="732.7103" fill="#000000" rx="3" ry="3" style="stroke:#000000;stroke-width:1.0;"/><text fill="#000000" font-family="sans-serif" font-size="14" lengthAdjust="spacing" textLength="173" x="513" y="736.9388">account_id : char(21) &#171;FK&#187;</text><line style="stroke:#181818;stroke-width:1.0;" x1="494" x2="724" y1="744.015" y2="744.015"/><ellipse cx="504" cy="758.3197" fill="#000000" rx="3" ry="3" style="stroke:#000000;stroke-width:1.0;"/><text fill="#000000" font-family="sans-serif" font-size="14" lengthAdjust="spacing" textLength="144" x="513" y="762.5482">created_at : timestamp</text><text fill="#000000" font-family="sans-serif" font-size="14" lengthAdjust="spacing" textLength="148" x="513" y="780.1576">updated_at : timestamp</text></g><!--class Transfer--><g id="elem_Transfer"><rect codeLine="72" fill="#F1F1F1" height="222.4844" id="Transfer" rx="2.5" ry="2.5" style="stroke:#181818;stroke-width:0.5;" width="235" x="759.5" y="555.94"/><ellipse cx="845.75" cy="571.94" fill="#ADD1B2" rx="11" ry="11" style="stroke:#181818;stroke-width:1.0;"/><path d="M844.6094,572.7369 L844.6094,575.2369 L848.9375,575.2369 L848.9375,574.315 Q848.9375,573.7056 849.1719,573.44 Q849.4219,573.1744 849.7969,573.1744 Q850.1719,573.1744 850.4063,573.44 Q850.6406,573.7056 850.6406,574.315 L850.6406,576.94 L842.6406,576.94 Q842.0156,576.94 841.75,576.7056 Q841.5,576.4713 841.5,576.0806 Q841.5,575.7056 841.7656,575.4713 Q842.0313,575.2369 842.6406,575.2369 L842.9063,575.2369 L842.9063,568.5806 L842.6406,568.5806 Q842.0156,568.5806 841.75,568.3463 Q841.5,568.1119 841.5,567.7213 Q841.5,567.3463 841.75,567.1119 Q842.0156,566.8775 842.6406,566.8775 L850.2656,566.8775 L850.2656,569.4713 Q850.2656,570.0806 850.0313,570.3463 Q849.8125,570.5963 849.4219,570.5963 Q849.0469,570.5963 848.8125,570.3463 Q848.5781,570.0806 848.5781,569.4713 L848.5781,568.5806 L844.6094,568.5806 L844.6094,571.0338 L846.0938,571.0338 Q846.0938,570.3775 846.2188,570.19 Q846.4844,569.7838 846.9531,569.7838 Q847.3281,569.7838 847.5625,570.0494 Q847.7969,570.2994 847.7969,570.9088 L847.7969,572.8775 Q847.7969,573.4244 847.6719,573.6119 Q847.4063,574.0025 846.9531,574.0025 Q846.4844,574.0025 846.2188,573.5963 Q846.0938,573.4088 846.0938,572.7369 L844.6094,572.7369 Z " fill="#000000"/><text fill="#000000" font-family="sans-serif" font-size="14" lengthAdjust="spacing" textLength="54" x="866.25" y="577.6685">Transfer</text><line style="stroke:#181818;stroke-width:0.5;" x1="760.5" x2="993.5" y1="587.94" y2="587.94"/><ellipse cx="770.5" cy="602.2447" fill="#000000" rx="3" ry="3" style="stroke:#000000;stroke-width:1.0;"/><text fill="#000000" font-family="sans-serif" font-size="14" lengthAdjust="spacing" textLength="172" x="779.5" y="606.4732">transfer_id : char(21) &#171;PK&#187;</text><line style="stroke:#181818;stroke-width:1.0;" x1="760.5" x2="993.5" y1="613.5494" y2="613.5494"/><ellipse cx="770.5" cy="627.8541" fill="#000000" rx="3" ry="3" style="stroke:#000000;stroke-width:1.0;"/><text fill="#000000" font-family="sans-serif" font-size="14" lengthAdjust="spacing" textLength="209" x="779.5" y="632.0826">from_account_id : char(21) &#171;FK&#187;</text><ellipse cx="770.5" cy="645.4634" fill="#000000" rx="3" ry="3" style="stroke:#000000;stroke-width:1.0;"/><text fill="#000000" font-family="sans-serif" font-size="14" lengthAdjust="spacing" textLength="193" x="779.5" y="649.692">to_account_id : char(21) &#171;FK&#187;</text><ellipse cx="770.5" cy="663.0728" fill="#000000" rx="3" ry="3" style="stroke:#000000;stroke-width:1.0;"/><text fill="#000000" font-family="sans-serif" font-size="14" lengthAdjust="spacing" textLength="145" x="779.5" y="667.3013">amount : decimal(15,2)</text><ellipse cx="770.5" cy="680.6822" fill="#000000" rx="3" ry="3" style="stroke:#000000;stroke-width:1.0;"/><text fill="#000000" font-family="sans-serif" font-size="14" lengthAdjust="spacing" textLength="103" x="779.5" y="684.9107">description : text</text><ellipse cx="770.5" cy="698.2916" fill="#000000" rx="3" ry="3" style="stroke:#000000;stroke-width:1.0;"/><text fill="#000000" font-family="sans-serif" font-size="14" lengthAdjust="spacing" textLength="125" x="779.5" y="702.5201">transfer_date : date</text><line style="stroke:#181818;stroke-width:1.0;" x1="760.5" x2="993.5" y1="709.5963" y2="709.5963"/><ellipse cx="770.5" cy="723.9009" fill="#000000" rx="3" ry="3" style="stroke:#000000;stroke-width:1.0;"/><text fill="#000000" font-family="sans-serif" font-size="14" lengthAdjust="spacing" textLength="151" x="779.5" y="728.1295">user_id : char(21) &#171;FK&#187;</text><line style="stroke:#181818;stroke-width:1.0;" x1="760.5" x2="993.5" y1="735.2056" y2="735.2056"/><ellipse cx="770.5" cy="749.5103" fill="#000000" rx="3" ry="3" style="stroke:#000000;stroke-width:1.0;"/><text fill="#000000" font-family="sans-serif" font-size="14" lengthAdjust="spacing" textLength="144" x="779.5" y="753.7388">created_at : timestamp</text><text fill="#000000" font-family="sans-serif" font-size="14" lengthAdjust="spacing" textLength="148" x="779.5" y="771.3482">updated_at : timestamp</text></g><!--link User to Session--><g id="link_User_Session"><path codeLine="88" d="M496.3864,140.2642 C433.5064,169.5142 360.83,205.67 293,246.65 C287.14,250.19 296.3637,244.1602 290.4337,247.9702 " fill="none" id="User-Session" style="stroke:#181818;stroke-width:1.0;"/><line style="stroke:#181818;stroke-width:1.0;" x1="498.3261" x2="501.7003" y1="134.9503" y2="142.2039"/><line style="stroke:#181818;stroke-width:1.0;" x1="495.606" x2="498.9802" y1="136.2156" y2="143.4692"/><line style="stroke:#181818;stroke-width:1.0;" x1="496.3864" x2="503.64" y1="140.2642" y2="136.89"/><line style="stroke:#181818;stroke-width:1.0;" x1="282.0205" x2="278.5333" y1="253.3757" y2="262.7479"/><line style="stroke:#181818;stroke-width:1.0;" x1="282.0205" x2="272.0467" y1="253.3757" y2="252.6521"/><line style="stroke:#181818;stroke-width:1.0;" x1="282.0205" x2="275.29" y1="253.3757" y2="257.7"/><ellipse cx="287.0684" cy="250.1324" fill="none" rx="4" ry="4" style="stroke:#181818;stroke-width:1.0;"/><text fill="#000000" font-family="sans-serif" font-size="13" lengthAdjust="spacing" textLength="80" x="379.17" y="213.1451">has_sessions</text></g><!--link User to Account--><g id="link_User_Account"><path codeLine="89" d="M668.9597,175.5781 C686.7797,202.7281 692.6725,211.6923 711.4525,240.3023 " fill="none" id="User-Account" style="stroke:#181818;stroke-width:1.0;"/><line style="stroke:#181818;stroke-width:1.0;" x1="663.4208" x2="670.1089" y1="174.4289" y2="170.0392"/><line style="stroke:#181818;stroke-width:1.0;" x1="665.067" x2="671.7551" y1="176.9369" y2="172.5472"/><line style="stroke:#181818;stroke-width:1.0;" x1="668.9597" x2="664.57" y1="175.5781" y2="168.89"/><line style="stroke:#181818;stroke-width:1.0;" x1="716.94" x2="726.3459" y1="248.6621" y2="252.0575"/><line style="stroke:#181818;stroke-width:1.0;" x1="716.94" x2="716.3141" y1="248.6621" y2="258.6425"/><line style="stroke:#181818;stroke-width:1.0;" x1="716.94" x2="721.33" y1="248.6621" y2="255.35"/><ellipse cx="713.6475" cy="243.6462" fill="none" rx="4" ry="4" style="stroke:#181818;stroke-width:1.0;"/><text fill="#000000" font-family="sans-serif" font-size="13" lengthAdjust="spacing" textLength="30" x="695.72" y="213.1451">owns</text></g><!--link User to Category--><g id="link_User_Category"><path codeLine="90" d="M551.8891,175.4626 C533.0491,202.6126 526.5573,211.9485 506.7173,240.5585 " fill="none" id="User-Category" style="stroke:#181818;stroke-width:1.0;"/><line style="stroke:#181818;stroke-width:1.0;" x1="550.8833" x2="557.4559" y1="169.8959" y2="174.4567"/><line style="stroke:#181818;stroke-width:1.0;" x1="549.173" x2="555.7455" y1="172.3606" y2="176.9214"/><line style="stroke:#181818;stroke-width:1.0;" x1="551.8891" x2="556.45" y1="175.4626" y2="168.89"/><line style="stroke:#181818;stroke-width:1.0;" x1="501.0188" x2="501.3905" y1="248.776" y2="258.7691"/><line style="stroke:#181818;stroke-width:1.0;" x1="501.0188" x2="491.5295" y1="248.776" y2="251.9309"/><line style="stroke:#181818;stroke-width:1.0;" x1="501.0188" x2="496.46" y1="248.776" y2="255.35"/><ellipse cx="504.4379" cy="243.8455" fill="none" rx="4" ry="4" style="stroke:#181818;stroke-width:1.0;"/><text fill="#000000" font-family="sans-serif" font-size="13" lengthAdjust="spacing" textLength="43" x="536.66" y="213.1451">creates</text></g><!--link User to Transaction--><g id="link_User_Transaction"><path codeLine="91" d="M611.5384,177.0999 C611.0284,275.0899 610.3039,415.6802 609.7139,528.7302 " fill="none" id="User-Transaction" style="stroke:#181818;stroke-width:1.0;"/><line style="stroke:#181818;stroke-width:1.0;" x1="607.5592" x2="615.5591" y1="173.0791" y2="173.1208"/><line style="stroke:#181818;stroke-width:1.0;" x1="607.5436" x2="615.5435" y1="176.0791" y2="176.1207"/><line style="stroke:#181818;stroke-width:1.0;" x1="611.5384" x2="611.58" y1="177.0999" y2="169.1"/><line style="stroke:#181818;stroke-width:1.0;" x1="609.6618" x2="615.6199" y1="538.7301" y2="546.7613"/><line style="stroke:#181818;stroke-width:1.0;" x1="609.6618" x2="603.6201" y1="538.7301" y2="546.6987"/><line style="stroke:#181818;stroke-width:1.0;" x1="609.6618" x2="609.62" y1="538.7301" y2="546.73"/><ellipse cx="609.6931" cy="532.7302" fill="none" rx="4" ry="4" style="stroke:#181818;stroke-width:1.0;"/><text fill="#000000" font-family="sans-serif" font-size="13" lengthAdjust="spacing" textLength="39" x="612.18" y="363.3851">makes</text></g><!--link User to Transfer--><g id="link_User_Transfer"><path codeLine="92" d="M727.6498,121.3872 C792.3098,145.1272 862.44,182.5 905,246.65 C965.23,337.44 950.8091,447.7074 924.0591,538.2674 " fill="none" id="User-Transfer" style="stroke:#181818;stroke-width:1.0;"/><line style="stroke:#181818;stroke-width:1.0;" x1="722.5163" x2="725.2735" y1="123.7635" y2="116.2537"/><line style="stroke:#181818;stroke-width:1.0;" x1="725.3325" x2="728.0897" y1="124.7975" y2="117.2877"/><line style="stroke:#181818;stroke-width:1.0;" x1="727.6498" x2="720.14" y1="121.3872" y2="118.63"/><line style="stroke:#181818;stroke-width:1.0;" x1="921.2263" x2="924.7142" y1="547.8577" y2="557.2297"/><line style="stroke:#181818;stroke-width:1.0;" x1="921.2263" x2="913.2058" y1="547.8577" y2="553.8303"/><line style="stroke:#181818;stroke-width:1.0;" x1="921.2263" x2="918.96" y1="547.8577" y2="555.53"/><ellipse cx="922.926" cy="542.1035" fill="none" rx="4" ry="4" style="stroke:#181818;stroke-width:1.0;"/><text fill="#000000" font-family="sans-serif" font-size="13" lengthAdjust="spacing" textLength="45" x="945.62" y="363.3851">initiates</text></g><!--link Account to Transaction--><g id="link_Account_Transaction"><path codeLine="93" d="M723.4922,467.5745 C715.8822,480.5045 712.27,486.67 705,499.14 C695.98,514.59 695.5361,515.2993 686.2461,531.3993 " fill="none" id="Account-Transaction" style="stroke:#181818;stroke-width:1.0;"/><line style="stroke:#181818;stroke-width:1.0;" x1="722.0738" x2="728.9684" y1="462.0984" y2="466.1562"/><line style="stroke:#181818;stroke-width:1.0;" x1="720.5522" x2="727.4467" y1="464.6838" y2="468.7416"/><line style="stroke:#181818;stroke-width:1.0;" x1="723.4922" x2="727.55" y1="467.5745" y2="460.68"/><line style="stroke:#181818;stroke-width:1.0;" x1="681.2483" x2="682.4469" y1="540.0608" y2="549.9887"/><line style="stroke:#181818;stroke-width:1.0;" x1="681.2483" x2="672.0531" y1="540.0608" y2="543.9913"/><line style="stroke:#181818;stroke-width:1.0;" x1="681.2483" x2="677.25" y1="540.0608" y2="546.99"/><ellipse cx="684.247" cy="534.8639" fill="none" rx="4" ry="4" style="stroke:#181818;stroke-width:1.0;"/><text fill="#000000" font-family="sans-serif" font-size="13" lengthAdjust="spacing" textLength="43" x="706" y="513.6351">records</text></g><!--link Account to Transfer--><g id="link_Account_Transfer"><path codeLine="94" d="M826.5454,468.4141 C830.7454,481.2641 832.34,486.67 836,499.14 C841.34,517.33 842.1151,519.3349 846.9351,538.2949 " fill="none" id="Account-Transfer" style="stroke:#181818;stroke-width:1.0;"/><line style="stroke:#181818;stroke-width:1.0;" x1="821.5006" x2="829.1048" y1="465.8548" y2="463.3694"/><line style="stroke:#181818;stroke-width:1.0;" x1="822.4327" x2="830.0368" y1="468.7063" y2="466.2209"/><line style="stroke:#181818;stroke-width:1.0;" x1="826.5454" x2="824.06" y1="468.4141" y2="460.81"/><line style="stroke:#181818;stroke-width:1.0;" x1="849.3989" x2="857.185" y1="547.9866" y2="554.2617"/><line style="stroke:#181818;stroke-width:1.0;" x1="849.3989" x2="845.555" y1="547.9866" y2="557.2183"/><line style="stroke:#181818;stroke-width:1.0;" x1="849.3989" x2="851.37" y1="547.9866" y2="555.74"/><ellipse cx="847.9206" cy="542.1716" fill="none" rx="4" ry="4" style="stroke:#181818;stroke-width:1.0;"/><text fill="#000000" font-family="sans-serif" font-size="13" lengthAdjust="spacing" textLength="78" x="842.11" y="513.6351">from_account</text></g><!--link Account to Transfer--><g id="link_Account_Transfer"><path codeLine="95" d="M755.8965,468.5454 C754.1165,487.6154 755.89,499.22 762,517.14 C766.48,530.28 763.6274,527.5946 770.7874,539.9546 " fill="none" id="Account-Transfer-1" style="stroke:#181818;stroke-width:1.0;"/><line style="stroke:#181818;stroke-width:1.0;" x1="752.2856" x2="760.2509" y1="464.1909" y2="464.9344"/><line style="stroke:#181818;stroke-width:1.0;" x1="752.0068" x2="759.9721" y1="467.178" y2="467.9214"/><line style="stroke:#181818;stroke-width:1.0;" x1="755.8965" x2="756.64" y1="468.5454" y2="460.58"/><line style="stroke:#181818;stroke-width:1.0;" x1="775.7999" x2="785.0018" y1="548.6076" y2="552.5225"/><line style="stroke:#181818;stroke-width:1.0;" x1="775.7999" x2="774.6182" y1="548.6076" y2="558.5375"/><line style="stroke:#181818;stroke-width:1.0;" x1="775.7999" x2="779.81" y1="548.6076" y2="555.53"/><ellipse cx="772.7924" cy="543.4158" fill="none" rx="4" ry="4" style="stroke:#181818;stroke-width:1.0;"/><text fill="#000000" font-family="sans-serif" font-size="13" lengthAdjust="spacing" textLength="64" x="763" y="513.6351">to_account</text></g><!--link Category to Transaction--><g id="link_Category_Transaction"><path codeLine="96" d="M490.7735,467.6633 C507.1635,495.1833 511.7404,502.8644 528.6404,531.2444 " fill="none" id="Category-Transaction" style="stroke:#181818;stroke-width:1.0;"/><line style="stroke:#181818;stroke-width:1.0;" x1="485.2901" x2="492.1634" y1="466.2734" y2="462.1799"/><line style="stroke:#181818;stroke-width:1.0;" x1="486.8252" x2="493.6985" y1="468.851" y2="464.7574"/><line style="stroke:#181818;stroke-width:1.0;" x1="490.7735" x2="486.68" y1="467.6633" y2="460.79"/><line style="stroke:#181818;stroke-width:1.0;" x1="533.7569" x2="543.0052" y1="539.8364" y2="543.6401"/><line style="stroke:#181818;stroke-width:1.0;" x1="533.7569" x2="532.6948" y1="539.8364" y2="549.7799"/><line style="stroke:#181818;stroke-width:1.0;" x1="533.7569" x2="537.85" y1="539.8364" y2="546.71"/><ellipse cx="530.687" cy="534.6812" fill="none" rx="4" ry="4" style="stroke:#181818;stroke-width:1.0;"/><text fill="#000000" font-family="sans-serif" font-size="13" lengthAdjust="spacing" textLength="54" x="518.5" y="513.6351">classifies</text></g><!--SRC=[pLLDQzmm4BtxLmXViWrPo0QMGWY1KiYbbzAFivdAu-mGIt8bEScIzBztP2bUxyPP9qiAFTdoUvgPzsOae_Rar-AdGoiUCY6EHSkl1PNYNCWLsDdPueEukFZwvVAIqVcyew02gfbm2pPobij0QZNzRh4Z7ekghUj2Wy8TNWSsuDoTiULpB6MG5i5ZMO1dYYU5peDg66gRSWpuasKObNn7vyZe9CR5LTH3sYSf_83M6zASH_76eJYBbKMtAhovGHsIuBsFgkyROYIc3bM4zA6aO1XSSvZdSgWfe2nvbzl21af7xRxQilkjPWZMSClLxt7favIcvOAZIn1N4rtVQURYz3GsynVKe6M0IfIae9ujbYTd4IDfzDWUQMfZ1y37V-l8HlXdXg-DNIVbCYqFbExNJVYEkbMpdAV9ACnFSXuKr0xp_zI27nQq0-atfyHllamOyHh1eBhH6Xk74fsqr7If1oThc3yKdyxNw_pOqyIUyTA0lwkbLN-5-hISCBEoHXKJfN4mCyqvqF9GuflzFjoi8_4DQt2KTN-RnyVvt3pqz_Mvo5VWYdHXktoBz7HTCSdSxOBzaMOqLhL360uySnJSZ392_nWcJPvYaAUqut4iIlw5lK1BmOOjtalST3dFUa7ZUILxwAYYKE5V]--></g></svg>